<?xml version="1.0" encoding="UTF-8" standalone="no"?>
<!-- Generator: Adobe Illustrator 21.1.0, SVG Export Plug-In . SVG Version: 6.00 Build 0)  -->

<svg
   xmlns:dc="http://purl.org/dc/elements/1.1/"
   xmlns:cc="http://creativecommons.org/ns#"
   xmlns:rdf="http://www.w3.org/1999/02/22-rdf-syntax-ns#"
   xmlns:svg="http://www.w3.org/2000/svg"
   xmlns="http://www.w3.org/2000/svg"
   xmlns:sodipodi="http://sodipodi.sourceforge.net/DTD/sodipodi-0.dtd"
   xmlns:inkscape="http://www.inkscape.org/namespaces/inkscape"
   version="1.1"
   id="Layer_1"
   x="0px"
   y="0px"
   viewBox="0 0 316.5 103.4"
   style="enable-background:new 0 0 316.5 103.4;"
   xml:space="preserve"
   inkscape:version="0.48.2 r9819"
   width="100%"
   height="100%"
   sodipodi:docname="caixa-logo-full-so-caixa.svg"><metadata
   id="metadata3037"><rdf:RDF><cc:Work
       rdf:about=""><dc:format>image/svg+xml</dc:format><dc:type
         rdf:resource="http://purl.org/dc/dcmitype/StillImage" /><dc:title></dc:title></cc:Work></rdf:RDF></metadata><defs
   id="defs3035" /><sodipodi:namedview
   pagecolor="#ffffff"
   bordercolor="#666666"
   borderopacity="1"
   objecttolerance="10"
   gridtolerance="10"
   guidetolerance="10"
   inkscape:pageopacity="0"
   inkscape:pageshadow="2"
   inkscape:window-width="1332"
   inkscape:window-height="775"
   id="namedview3033"
   showgrid="false"
   inkscape:zoom="2.9794629"
   inkscape:cx="166.91051"
   inkscape:cy="51.7"
   inkscape:window-x="315"
   inkscape:window-y="224"
   inkscape:window-maximized="0"
   inkscape:current-layer="Layer_1" />
<style
   type="text/css"
   id="style3013">
	.st0{fill-rule:evenodd;clip-rule:evenodd;fill:#0270B8;}
	.st1{fill-rule:evenodd;clip-rule:evenodd;fill:#F5822B;}
</style>








<g
   id="g3039"
   transform="translate(-0.33563097,10.740191)"><path
     id="path3015"
     d="m 56.9,32.2 c -1.8,-2 -3.7,-3.5 -5.7,-4.5 -2,-1 -4.2,-1.5 -6.6,-1.5 -3.8,0 -6.9,1.2 -9.6,3.4 -2.6,2.3 -4.2,5.4 -4.8,9.2 -0.6,3.7 0,6.7 1.9,8.9 1.8,2.3 4.6,3.4 8.2,3.4 2.2,0 4.5,-0.5 6.9,-1.4 2.4,-1 5.1,-2.5 8.1,-4.5 L 51,69.1 c -2.7,1 -5.3,1.8 -7.8,2.3 -2.6,0.5 -5.1,0.8 -7.6,0.8 -3.1,0 -6.1,-0.4 -8.8,-1.1 C 24,70.4 21.6,69.4 19.5,68.1 14.3,64.9 10.7,60.8 8.6,55.8 6.5,50.8 5.9,45.2 6.9,38.8 7.7,34 9.1,29.6 11.4,25.6 c 2.3,-4.1 5.2,-7.6 8.8,-10.7 3.6,-3.2 7.7,-5.5 12,-7.1 4.4,-1.6 9,-2.4 13.9,-2.4 2.6,0 5.1,0.3 7.5,0.8 2.5,0.5 4.8,1.3 7,2.4 l -3.7,23.6 0,0 z m 31.5,15.2 h 9.5 l -0.8,-7.2 c -0.4,-3.7 -0.7,-6.5 -0.7,-8.5 0,-2 0.1,-3.8 0.2,-5.5 h -0.4 c -0.4,1.7 -0.9,3.6 -1.5,5.5 -0.7,2 -1.8,4.8 -3.3,8.5 l -3,7.2 0,0 z M 54.6,70.5 87,7 h 25.4 l 12.4,63.5 h -24.5 l -0.8,-8 H 82.3 l -3.2,8 H 54.6 l 0,0 z m 76.1,0 9.7,-63.5 h 23.2 l -9.7,63.5 h -23.2 l 0,0 z"
     class="st0"
     inkscape:connector-curvature="0"
     style="fill:#0270b8;fill-rule:evenodd" /><path
     id="path3017"
     d="m 271.5,47.4 h 9.5 l -0.8,-7.2 c -0.4,-3.7 -0.6,-6.5 -0.7,-8.5 0,-2 0.1,-3.8 0.2,-5.5 h -0.4 c -0.3,1.7 -0.9,3.6 -1.5,5.5 -0.6,2 -1.8,4.8 -3.3,8.5 l -3,7.2 0,0 z M 237.7,70.5 270.1,7 h 25.4 l 12.4,63.5 h -24.5 l -0.8,-8 h -17.2 l -3.2,8 h -24.5 l 0,0 z"
     class="st0"
     inkscape:connector-curvature="0"
     style="fill:#0270b8;fill-rule:evenodd" /><polygon
     id="polygon3025"
     points="204.4,71.4 188.1,40.3 216.4,40.3 232.8,71.4 232.8,71.4 "
     class="st0"
     style="fill:#0270b8;fill-rule:evenodd" /><polygon
     id="polygon3027"
     points="219.7,6.1 190.4,37.2 218.8,37.2 248.1,6.1 248.1,6.1 "
     class="st1"
     style="fill:#f5822b;fill-rule:evenodd" /><polygon
     id="polygon3029"
     points="202.3,6.1 218.6,37.2 190.2,37.2 173.9,6.1 173.9,6.1 "
     class="st0"
     style="fill:#0270b8;fill-rule:evenodd" /><polygon
     id="polygon3031"
     points="187,71.4 216.2,40.3 187.9,40.3 158.5,71.4 158.5,71.4 "
     class="st1"
     style="fill:#f5822b;fill-rule:evenodd" /></g>
</svg>