<?xml version="1.0" encoding="UTF-8" standalone="no"?>
<!-- Created with Inkscape (http://www.inkscape.org/) -->

<svg
   xmlns:dc="http://purl.org/dc/elements/1.1/"
   xmlns:cc="http://creativecommons.org/ns#"
   xmlns:rdf="http://www.w3.org/1999/02/22-rdf-syntax-ns#"
   xmlns:svg="http://www.w3.org/2000/svg"
   xmlns="http://www.w3.org/2000/svg"
   xmlns:sodipodi="http://sodipodi.sourceforge.net/DTD/sodipodi-0.dtd"
   xmlns:inkscape="http://www.inkscape.org/namespaces/inkscape"
   width="319.8996mm"
   height="72.322617mm"
   viewBox="0 0 319.8996 72.322617"
   version="1.1"
   id="svg8"
   inkscape:version="0.92.2 (5c3e80d, 2017-08-06)"
   sodipodi:docname="caixa.svg">
  <defs
     id="defs2">
    <clipPath
       id="clipPath3766"
       clipPathUnits="userSpaceOnUse">
      <path
         inkscape:connector-curvature="0"
         id="path3764"
         d="M 0,841.89 H 1190.551 V 0 H 0 Z" />
    </clipPath>
  </defs>
  <sodipodi:namedview
     id="base"
     pagecolor="#ffffff"
     bordercolor="#666666"
     borderopacity="1.0"
     inkscape:pageopacity="0.0"
     inkscape:pageshadow="2"
     inkscape:zoom="0.35"
     inkscape:cx="144.53465"
     inkscape:cy="-20.470179"
     inkscape:document-units="mm"
     inkscape:current-layer="layer1"
     showgrid="false"
     inkscape:window-width="1600"
     inkscape:window-height="877"
     inkscape:window-x="892"
     inkscape:window-y="239"
     inkscape:window-maximized="1" />
  <metadata
     id="metadata5">
    <rdf:RDF>
      <cc:Work
         rdf:about="">
        <dc:format>image/svg+xml</dc:format>
        <dc:type
           rdf:resource="http://purl.org/dc/dcmitype/StillImage" />
        <dc:title></dc:title>
      </cc:Work>
    </rdf:RDF>
  </metadata>
  <g
     inkscape:label="Layer 1"
     inkscape:groupmode="layer"
     id="layer1"
     transform="translate(58.274198,-71.094647)">
    <g
       transform="matrix(0.35277777,0,0,-0.35277777,-108.07277,255.75603)"
       inkscape:label="CAIXA_chapada_negativa"
       id="g3746">
      <g
         transform="translate(596.6814,321.4849)"
         id="g3748">
        <path
           inkscape:connector-curvature="0"
           id="path3750"
           style="fill:#f68712;fill-opacity:1;fill-rule:evenodd;stroke:none"
           d="m 0,0 h 86.21 l 94.503,94.503 h -86.21 z" />
      </g>
      <g
         transform="translate(795.2833,520.0869)"
         id="g3752">
        <path
           inkscape:connector-curvature="0"
           id="path3754"
           style="fill:#f68712;fill-opacity:1;fill-rule:evenodd;stroke:none"
           d="M 0,0 -37.392,-37.392 -8.293,-94.503 86.21,0 Z" />
      </g>
      <g
         transform="translate(553.2147,520.0869)"
         id="g3756">
        <path
           inkscape:connector-curvature="0"
           id="path3758"
           style="fill:#ffffff;fill-opacity:1;fill-rule:evenodd;stroke:none"
           d="M 0,0 H 72.132 L 40.626,-198.602 h -72.128 z" />
      </g>
      <g
         id="g3760">
        <g
           clip-path="url(#clipPath3766)"
           id="g3762">
          <g
             transform="translate(424.9176,393.283)"
             id="g3768">
            <path
               inkscape:connector-curvature="0"
               id="path3770"
               style="fill:#ffffff;fill-opacity:1;fill-rule:evenodd;stroke:none"
               d="M 0,0 -3.537,36.408 C -4.371,45 -3.997,57.901 -3.831,67.106 H -6.786 L -31.505,0 h 30.942 z m -59.737,-71.798 h -76.265 L -35.58,126.804 H 44.211 L 83.718,-71.798 H 7.271 L 4.554,-47.026 H -49.98 Z" />
          </g>
          <g
             transform="translate(652.6191,520.1058)"
             id="g3772">
            <path
               inkscape:connector-curvature="0"
               id="path3774"
               style="fill:#ffffff;fill-opacity:1;fill-rule:evenodd;stroke:none"
               d="m 0,0 86.207,0.006 48.165,-94.528 H 48.161 Z" />
          </g>
          <g
             transform="translate(964.2453,393.283)"
             id="g3776">
            <path
               inkscape:connector-curvature="0"
               id="path3778"
               style="fill:#ffffff;fill-opacity:1;fill-rule:evenodd;stroke:none"
               d="M 0,0 -3.537,36.408 C -4.372,45 -3.997,57.901 -3.831,67.106 H -6.787 L -31.506,0 h 30.943 z m -59.738,-71.798 h -76.265 L -35.581,126.804 H 44.211 L 83.718,-71.798 H 7.271 L 4.554,-47.026 H -49.98 Z" />
          </g>
          <g
             transform="translate(300.0157,439.6576)"
             id="g3780">
            <path
               inkscape:connector-curvature="0"
               id="path3782"
               style="fill:#ffffff;fill-opacity:1;fill-rule:evenodd;stroke:none"
               d="m 0,0 c -9.766,10.709 -22.88,19.984 -39.169,19.984 -21.611,0 -41.921,-17.105 -45.427,-38.691 -3.366,-21.912 12.636,-38.693 34.232,-38.693 16.616,0 30.851,7.028 44.29,18.376 l -13.916,-74.35 c -12.481,-5.435 -39.651,-7.843 -52.62,-7.843 -56.584,0 -93.865,43.985 -84.921,100.578 9.133,58.049 62.069,104.431 120.269,104.431 16.308,0 32.77,-3.039 47.151,-8.149 z" />
          </g>
          <g
             transform="translate(720.2838,358.877)"
             id="g3784">
            <path
               inkscape:connector-curvature="0"
               id="path3786"
               style="fill:#ffffff;fill-opacity:1;fill-rule:evenodd;stroke:none"
               d="m 0,0 57.111,57.111 48.152,-94.503 H 19.052 Z" />
          </g>
        </g>
      </g>
    </g>
  </g>
  <style
     id="style3699"
     type="text/css">
	.st0{fill-rule:evenodd;clip-rule:evenodd;fill:#0270B8;}
	.st1{fill-rule:evenodd;clip-rule:evenodd;fill:#F5822B;}
</style>
</svg>
